<?xml version="1.0" encoding="UTF-8"?>
<svg id="Camada_1" xmlns="http://www.w3.org/2000/svg" xmlns:xlink="http://www.w3.org/1999/xlink" version="1.1" viewBox="0 0 841.9 246.4">
  <!-- Generator: Adobe Illustrator 30.2.1, SVG Export Plug-In . SVG Version: 2.1.1 Build 1)  -->
  <defs>
    <style>
      .st0 {
        fill: url(#Gradiente_sem_nome_74);
      }

      .st1 {
        fill: url(#Gradiente_sem_nome_59);
      }

      .st2 {
        fill: url(#Gradiente_sem_nome_64);
      }

      .st3 {
        fill: url(#Gradiente_sem_nome_591);
      }

      .st4 {
        fill: #f6f6f6;
        font-family: AzonixRegular, Azonix;
        font-size: 186.1px;
      }
    </style>
    <linearGradient id="Gradiente_sem_nome_59" data-name="Gradiente sem nome 59" x1="660" y1="322.9" x2="750.1" y2="166.7" gradientUnits="userSpaceOnUse">
      <stop offset="0" stop-color="#5fc5eb"/>
      <stop offset="1" stop-color="#604d9b"/>
    </linearGradient>
    <linearGradient id="Gradiente_sem_nome_591" data-name="Gradiente sem nome 59" x1="592.2" y1="117.7" x2="682.3" y2="-38.4" xlink:href="#Gradiente_sem_nome_59"/>
    <linearGradient id="Gradiente_sem_nome_64" data-name="Gradiente sem nome 64" x1="612.2" y1="185.2" x2="747.6" y2="185.2" gradientUnits="userSpaceOnUse">
      <stop offset="0" stop-color="#5fc5eb"/>
      <stop offset=".9" stop-color="#604d9b"/>
    </linearGradient>
    <linearGradient id="Gradiente_sem_nome_74" data-name="Gradiente sem nome 74" x1="-639.2" y1="-611.1" x2="-742.8" y2="-670.8" gradientTransform="translate(-17.2 -593.8) rotate(-180)" gradientUnits="userSpaceOnUse">
      <stop offset="0" stop-color="#5fc5eb"/>
      <stop offset=".7" stop-color="#604d9b"/>
    </linearGradient>
  </defs>
  <text class="st4" transform="translate(34.8 189.1)"><tspan x="0" y="0">indiq</tspan></text>
  <g>
    <path class="st1" d="M783.1,190.1c-1.1,0-2.3.1-3.4.3l-58.2-58.2c-3.9-3.9-3.8-10.2.1-14l54-52.3c2,.7,4.2,1.1,6.5,1.1,11,0,19.9-8.9,19.9-19.9s-8.9-19.9-19.9-19.9-19.9,8.9-19.9,19.9,0,1.3.1,2l-60.9,63.3c-8.1,8.4-8,21.7,0,30l62.1,63.8c-.2,1.2-.4,2.5-.4,3.8,0,11,8.9,19.9,19.9,19.9s19.9-8.9,19.9-19.9-8.9-19.9-19.9-19.9Z"/>
    <path class="st3" d="M576.8,63.9c1.1,0,2.3-.1,3.4-.3l58.2,58.2c3.9,3.9,3.8,10.2-.1,14l-54,52.3c-2-.7-4.2-1.1-6.5-1.1-11,0-19.9,8.9-19.9,19.9s8.9,19.9,19.9,19.9,19.9-8.9,19.9-19.9,0-1.3-.1-2l60.9-63.3c8.1-8.4,8-21.7,0-30l-62.1-63.8c.2-1.2.4-2.5.4-3.8,0-11-8.9-19.9-19.9-19.9s-19.9,8.9-19.9,19.9,8.9,19.9,19.9,19.9Z"/>
    <path class="st2" d="M686.9,180.7l42.1,41.1c3.9,3.8,10,4,14.1.5l.8-.7c4.6-4,4.9-11,.6-15.3l-57.5-58c-4.1-4.2-10.9-4.1-15,.1l-57,59.1c-4.4,4.5-3.8,11.8,1.2,15.6h0c4.1,3.1,9.9,2.7,13.6-.9l42.2-41.5c4.1-4,10.6-4,14.6,0Z"/>
    <path class="st0" d="M672.2,71.3l-42.1-41.1c-3.9-3.8-10-4-14.1-.5l-.8.7c-4.6,4-4.9,11-.6,15.3l57.5,58c4.1,4.2,10.9,4.1,15-.1l57-59.1c4.4-4.5,3.8-11.8-1.2-15.6h0c-4.1-3.1-9.9-2.7-13.6.9l-42.2,41.5c-4.1,4-10.6,4-14.6,0Z"/>
  </g>
</svg>